<svg width="24" height="24" viewBox="0 0 24 24" fill="none" xmlns="http://www.w3.org/2000/svg">
  <path d="M12 3.5C7.31 3.5 3.5 7.31 3.5 12C3.5 16.69 7.31 20.5 12 20.5C16.69 20.5 20.5 16.69 20.5 12C20.5 7.31 16.69 3.5 12 3.5Z" stroke="currentColor" stroke-width="1.7"/>
  <path d="M6.8 12C8.05 9.9 9.78 8.85 12 8.85C14.22 8.85 15.95 9.9 17.2 12C15.95 14.1 14.22 15.15 12 15.15C9.78 15.15 8.05 14.1 6.8 12Z" stroke="currentColor" stroke-width="1.7" stroke-linejoin="round"/>
  <path d="M12 12.95C12.52 12.95 12.95 12.52 12.95 12C12.95 11.48 12.52 11.05 12 11.05C11.48 11.05 11.05 11.48 11.05 12C11.05 12.52 11.48 12.95 12 12.95Z" fill="currentColor"/>
</svg>

